<svg width="1500" height="145" viewBox="0 0 1500 145" fill="none" xmlns="http://www.w3.org/2000/svg">
<g clip-path="url(#clip0_1_49)">
<path d="M545.563 10.232C546.27 8.92241 547.378 7.87395 548.725 7.24058C550.071 6.6072 551.586 6.42227 553.045 6.71294C554.505 7.00361 555.832 7.75457 556.834 8.85555C557.835 9.95653 558.457 11.3495 558.608 12.83C558.743 14.0718 559.209 15.2545 559.958 16.2539C560.707 17.2534 561.712 18.0327 562.866 18.5102C564.02 18.9877 565.281 19.1456 566.518 18.9675C567.754 18.7894 568.92 18.2818 569.892 17.498C575.192 13.224 582.852 18.353 580.936 24.884C580.585 26.0824 580.563 27.3533 580.872 28.5633C581.181 29.7733 581.81 30.8778 582.693 31.7609C583.576 32.644 584.681 33.2731 585.891 33.5822C587.101 33.8914 588.372 33.8692 589.57 33.518C590.993 33.0973 592.513 33.1425 593.909 33.6471C595.304 34.1516 596.502 35.089 597.327 36.3224C598.151 37.5558 598.56 39.0207 598.494 40.503C598.427 41.9854 597.888 43.4076 596.956 44.562C596.172 45.5345 595.665 46.7 595.486 47.9363C595.308 49.1726 595.466 50.4341 595.944 51.5883C596.421 52.7425 597.201 53.7468 598.2 54.496C599.2 55.2452 600.382 55.7115 601.624 55.846C603.105 55.9972 604.498 56.6191 605.598 57.6203C606.699 58.6216 607.45 59.9494 607.741 61.4089C608.032 62.8685 607.847 64.3827 607.213 65.7294C606.58 67.076 605.532 68.1841 604.222 68.891C603.127 69.4903 602.213 70.3732 601.576 71.4471C600.94 72.5211 600.604 73.7465 600.604 74.995C600.604 76.2434 600.94 77.4689 601.576 78.5429C602.213 79.6168 603.127 80.4997 604.222 81.099C605.532 81.8058 606.58 82.914 607.213 84.2606C607.847 85.6073 608.032 87.1215 607.741 88.581C607.45 90.0405 606.699 91.3684 605.598 92.3697C604.498 93.3709 603.105 93.9928 601.624 94.144C600.382 94.2785 599.2 94.7448 598.2 95.494C597.201 96.2431 596.421 97.2475 595.944 98.4017C595.466 99.5559 595.308 100.817 595.486 102.054C595.665 103.29 596.172 104.456 596.956 105.428C601.23 110.728 596.101 118.388 589.57 116.472C588.372 116.121 587.101 116.099 585.891 116.408C584.681 116.717 583.576 117.346 582.693 118.229C581.81 119.112 581.181 120.217 580.872 121.427C580.563 122.637 580.585 123.908 580.936 125.106C581.357 126.529 581.312 128.049 580.807 129.445C580.302 130.84 579.365 132.038 578.132 132.862C576.898 133.687 575.433 134.096 573.951 134.03C572.469 133.963 571.046 133.424 569.892 132.492C568.92 131.708 567.754 131.201 566.518 131.022C565.281 130.844 564.02 131.002 562.866 131.48C561.712 131.957 560.707 132.737 559.958 133.736C559.209 134.736 558.743 135.918 558.608 137.16C558.457 138.64 557.835 140.033 556.834 141.134C555.832 142.235 554.505 142.986 553.045 143.277C551.586 143.568 550.071 143.383 548.725 142.749C547.378 142.116 546.27 141.068 545.563 139.758C544.964 138.663 544.081 137.749 543.007 137.112C541.933 136.476 540.707 136.14 539.459 136.14C538.211 136.14 536.985 136.476 535.911 137.112C534.837 137.749 533.954 138.663 533.355 139.758C532.648 141.068 531.54 142.116 530.193 142.749C528.847 143.383 527.333 143.568 525.873 143.277C524.413 142.986 523.086 142.235 522.084 141.134C521.083 140.033 520.461 138.64 520.31 137.16C520.176 135.918 519.709 134.736 518.96 133.736C518.211 132.737 517.207 131.957 516.052 131.48C514.898 131.002 513.637 130.844 512.4 131.022C511.164 131.201 509.999 131.708 509.026 132.492C507.872 133.424 506.449 133.963 504.967 134.03C503.485 134.096 502.02 133.687 500.786 132.862C499.553 132.038 498.616 130.84 498.111 129.445C497.607 128.049 497.561 126.529 497.982 125.106C498.333 123.908 498.355 122.637 498.046 121.427C497.737 120.217 497.108 119.112 496.225 118.229C495.342 117.346 494.237 116.717 493.027 116.408C491.817 116.099 490.546 116.121 489.348 116.472C487.925 116.893 486.405 116.847 485.009 116.343C483.614 115.838 482.416 114.901 481.592 113.668C480.767 112.434 480.358 110.969 480.424 109.487C480.491 108.005 481.03 106.582 481.962 105.428C482.746 104.456 483.253 103.29 483.432 102.054C483.61 100.817 483.452 99.5559 482.974 98.4017C482.497 97.2475 481.717 96.2431 480.718 95.494C479.719 94.7448 478.536 94.2785 477.294 94.144C475.814 93.9928 474.421 93.3709 473.32 92.3697C472.219 91.3684 471.468 90.0405 471.177 88.581C470.886 87.1215 471.071 85.6073 471.705 84.2606C472.338 82.914 473.386 81.8058 474.696 81.099C475.791 80.4997 476.705 79.6168 477.342 78.5429C477.978 77.4689 478.314 76.2434 478.314 74.995C478.314 73.7465 477.978 72.5211 477.342 71.4471C476.705 70.3732 475.791 69.4903 474.696 68.891C473.386 68.1841 472.338 67.076 471.705 65.7294C471.071 64.3827 470.886 62.8685 471.177 61.4089C471.468 59.9494 472.219 58.6216 473.32 57.6203C474.421 56.6191 475.814 55.9972 477.294 55.846C478.536 55.7115 479.719 55.2452 480.718 54.496C481.717 53.7468 482.497 52.7425 482.974 51.5883C483.452 50.4341 483.61 49.1726 483.432 47.9363C483.253 46.7 482.746 45.5345 481.962 44.562C477.688 39.262 482.817 31.602 489.348 33.518C490.546 33.8692 491.817 33.8914 493.027 33.5822C494.237 33.2731 495.342 32.644 496.225 31.7609C497.108 30.8778 497.737 29.7733 498.046 28.5633C498.355 27.3533 498.333 26.0824 497.982 24.884C497.561 23.461 497.607 21.9409 498.111 20.5454C498.616 19.15 499.553 17.9524 500.786 17.1275C502.02 16.3026 503.485 15.8937 504.967 15.9603C506.449 16.027 507.872 16.5657 509.026 17.498C509.999 18.2818 511.164 18.7894 512.4 18.9675C513.637 19.1456 514.898 18.9877 516.052 18.5102C517.207 18.0327 518.211 17.2534 518.96 16.2539C519.709 15.2545 520.176 14.0718 520.31 12.83C520.461 11.3495 521.083 9.95653 522.084 8.85555C523.086 7.75457 524.413 7.00361 525.873 6.71294C527.333 6.42227 528.847 6.6072 530.193 7.24058C531.54 7.87395 532.648 8.92241 533.355 10.232C533.954 11.3272 534.837 12.241 535.911 12.8776C536.985 13.5142 538.211 13.8501 539.459 13.8501C540.707 13.8501 541.933 13.5142 543.007 12.8776C544.081 12.241 544.964 11.3272 545.563 10.232Z" fill="white"/>
<path d="M571.014 71.566C567.071 67.232 562.729 65.336 557.729 65.754C552.826 66.17 549.171 67.959 546.554 71.228C545.77 72.207 545.087 73.244 544.427 74.246C543.947 74.974 543.495 75.663 543.007 76.33C542.087 77.586 541.133 78.887 540.044 79.976C539.279 80.739 538.098 81.586 536.809 81.288C535.851 81.066 534.887 80.721 533.889 80.334L533.976 80.272C539.201 76.579 541.408 72.22 540.726 66.947C540.087 62.007 537.424 58.719 533.024 57.439C531.144 56.894 529.064 56.475 526.84 56.196C521.182 55.486 516.003 57.333 512.125 59.021C511.299 59.381 510.5 59.792 509.726 60.191C509.37 60.374 509.01 60.559 508.643 60.741C508.448 60.8381 508.275 60.9734 508.133 61.1387C507.992 61.304 507.885 61.496 507.819 61.7034C507.753 61.9107 507.729 62.1292 507.749 62.3459C507.769 62.5626 507.832 62.7731 507.935 62.965L512.597 71.653C512.799 72.0296 513.142 72.3115 513.55 72.4374C513.959 72.5634 514.401 72.5233 514.78 72.326L515.208 72.101C515.418 71.989 515.588 71.898 515.762 71.815C516.403 71.511 517.042 71.198 517.68 70.885C519.084 70.197 520.536 69.485 521.98 68.895C525.37 67.51 528.524 67.699 531.62 69.47C532.207 69.807 532.476 70.147 532.313 71.069C532.082 72.379 531.259 73.219 529.474 73.971C527.334 74.871 524.923 75.003 522.104 74.371C521.406 74.216 520.712 74.045 519.958 73.861L518.811 73.581C518.534 73.5148 518.245 73.5224 517.972 73.6031C517.699 73.6837 517.452 73.8345 517.255 74.0405C517.059 74.2464 516.92 74.5003 516.852 74.7768C516.785 75.0532 516.791 75.3426 516.87 75.616L520.13 86.81C520.193 87.027 520.301 87.2283 520.447 87.4013C520.592 87.5742 520.772 87.7149 520.975 87.8143C521.178 87.9138 521.4 87.9699 521.626 87.9789C521.851 87.988 522.077 87.9499 522.287 87.867C524.666 86.927 526.887 87.017 528.935 87.252C531.683 87.57 532.811 89.315 533.24 90.326C533.965 92.04 533.762 94.023 532.721 95.378C531.416 97.08 529.741 98.3 527.603 99.109C524.289 100.363 520.911 99.973 518.043 99.425C515.25 98.892 512.933 97.694 510.96 95.762C508.262 93.12 506.328 89.76 504.873 85.185C504.467 83.909 504.149 82.611 503.813 81.236C503.658 80.602 503.502 79.965 503.336 79.326C503.251 78.9934 503.064 78.696 502.8 78.4762C502.537 78.2565 502.21 78.1255 501.868 78.102C501.527 78.0761 501.187 78.1602 500.898 78.342C500.608 78.5238 500.385 78.7937 500.26 79.112C500.12 79.3775 500.039 79.6702 500.023 79.97C499.991 80.693 499.936 81.419 499.882 82.145C499.752 83.859 499.619 85.631 499.782 87.417C500.368 93.799 502.872 99.537 507.225 104.469C512.283 110.2 518.78 112.232 524.695 112.232C527.89 112.232 530.917 111.638 533.453 110.713C537.008 109.418 539.428 107.478 540.85 104.785C542.063 102.489 542.782 99.815 543.052 96.609C543.328 93.319 542.352 90.259 541.362 87.699L541.345 87.656L541.633 87.681C542.81 87.784 544.018 87.891 545.244 87.82C545.194 87.924 545.154 88.0329 545.126 88.145C545.046 88.458 544.951 88.77 544.856 89.082C544.615 89.869 544.342 90.762 544.3 91.719C544.143 95.298 544.952 98.716 546.702 101.877C547.962 104.152 549.629 105.768 551.66 106.682C560.372 110.602 569.585 107.274 573.567 98.766C575.367 94.924 576.16 90.659 576.065 85.346C575.969 79.703 574.314 75.196 571.014 71.566ZM567.405 89.113C565.166 93.221 558.997 95.847 554.202 94.727C551.183 94.024 549.489 92.367 548.871 89.514C548.814 89.252 548.769 88.987 548.723 88.722L548.649 88.298C548.578 87.9111 548.369 87.563 548.061 87.318C550.936 86.431 553.421 84.428 555.612 81.242C557.081 79.108 558.481 77.439 559.892 76.139C561.144 74.989 562.765 74.562 564.343 74.967C565.973 75.387 567.232 76.591 567.795 78.271C568.205 79.4988 568.479 80.7681 568.61 82.056C568.884 84.816 568.489 87.123 567.405 89.113ZM539.816 96.339C539.581 99.139 538.996 101.341 537.979 103.269C536.936 105.245 535.145 106.641 532.342 107.662C526.073 109.948 516.372 109.92 509.664 102.321C506.674 98.933 504.661 95.124 503.655 90.961C505.006 93.769 506.653 96.091 508.688 98.083C511.099 100.443 514.043 101.97 517.435 102.618C520.555 103.213 524.661 103.698 528.755 102.148C531.477 101.118 533.617 99.55 535.301 97.356C537.042 95.089 537.408 91.832 536.233 89.059C535.036 86.229 532.512 84.395 529.309 84.024C527.4 83.804 525.186 83.687 522.784 84.297L520.775 77.401C520.982 77.45 521.189 77.497 521.395 77.543C524.895 78.323 527.95 78.136 530.735 76.966C532.515 76.216 534.946 74.848 535.514 71.633C535.894 69.479 535.085 67.709 533.234 66.65C529.267 64.378 525.068 64.123 520.751 65.887C519.205 66.518 517.703 67.255 516.251 67.967C515.738 68.217 515.225 68.47 514.709 68.717L511.583 62.89C512.186 62.5739 512.798 62.2771 513.42 62C517.134 60.385 521.583 58.818 526.434 59.42C528.487 59.679 530.398 60.061 532.114 60.561C535.265 61.477 537.027 63.703 537.501 67.365C538.029 71.443 536.362 74.605 532.098 77.619C531.6 77.971 531.084 78.297 530.488 78.676C530.17 78.876 529.83 79.093 529.458 79.333C529.205 79.4972 529.002 79.7287 528.873 80.0016C528.744 80.2744 528.693 80.5778 528.727 80.8778C528.76 81.1777 528.877 81.4624 529.063 81.7C529.249 81.9376 529.498 82.1187 529.781 82.223C530.441 82.464 531.074 82.718 531.695 82.964C533.169 83.551 534.562 84.105 536.072 84.456C536.636 84.5884 537.217 84.6316 537.794 84.584C537.528 84.8057 537.339 85.1067 537.256 85.4432C537.173 85.7796 537.2 86.1338 537.332 86.454L537.695 87.324C537.923 87.867 538.135 88.368 538.331 88.874C539.233 91.199 540.035 93.714 539.816 96.339ZM545.784 84.507C544.587 84.677 543.289 84.563 541.916 84.445C541.26 84.388 540.602 84.33 539.946 84.303C539.785 84.296 539.626 84.278 539.426 84.258L539.336 84.249C540.383 83.878 541.401 83.213 542.34 82.274C543.605 81.009 544.68 79.544 545.627 78.251C546.15 77.5245 546.654 76.785 547.14 76.033C547.787 75.05 548.399 74.121 549.088 73.26C551.118 70.725 554.034 69.33 558.001 68.993C561.887 68.658 565.196 70.102 568.389 73.516C567.454 72.7092 566.346 72.1295 565.15 71.822C562.525 71.145 559.736 71.867 557.69 73.75C556.097 75.217 554.54 77.065 552.933 79.402C550.807 82.492 548.537 84.114 545.784 84.507ZM570.625 97.39C567.431 104.219 560.017 106.881 552.995 103.72C551.6 103.091 550.472 101.975 549.547 100.304C548.532 98.4904 547.884 96.4948 547.64 94.431C549.005 96.138 550.967 97.311 553.465 97.892C559.648 99.332 567.338 96.024 570.258 90.668C571.666 88.088 572.183 85.165 571.842 81.734C571.689 80.2039 571.364 78.6958 570.875 77.238C570.773 76.9358 570.656 76.6394 570.522 76.35C572.002 78.884 572.757 81.874 572.819 85.404C572.903 90.204 572.206 94.012 570.625 97.39Z" fill="#85144B"/>
<path d="M547.932 62.974C550.348 63.703 552.765 64.067 555.172 64.067C558.425 64.067 561.662 63.398 564.864 62.071L564.894 62.063L564.927 62.047C565.402 61.8468 565.872 61.6344 566.336 61.41C566.416 61.371 566.498 61.339 566.579 61.3C567.135 61.027 567.684 60.7379 568.223 60.433C568.986 60.002 569.705 59.51 570.4 59.032C570.716 58.815 571.036 58.596 571.367 58.377C571.556 58.2518 571.717 58.0884 571.84 57.8972C571.962 57.706 572.043 57.4913 572.077 57.2669C572.112 57.0425 572.099 56.8134 572.039 56.5944C571.98 56.3753 571.875 56.1711 571.732 55.995L570.304 54.243L570.206 54.124C569.511 53.2725 568.817 52.4201 568.124 51.567C567.576 50.8919 567.03 50.2152 566.486 49.537C566.005 48.937 565.439 48.603 564.801 48.542C563.835 48.438 563.135 49.042 562.906 49.236C562.066 49.95 561.364 50.483 560.698 50.916C557.364 53.089 554.185 53.989 550.978 53.672C544.668 53.047 540.419 50.146 537.988 44.802C537.844 44.4813 537.599 44.2161 537.291 44.0463C536.983 43.8766 536.628 43.8114 536.28 43.8607C535.932 43.91 535.609 44.0711 535.361 44.3196C535.112 44.5682 534.951 44.8908 534.901 45.239C534.459 48.232 534.852 50.921 536.101 53.459C538.381 58.091 542.363 61.291 547.932 62.974ZM550.658 56.904C554.631 57.303 558.495 56.23 562.472 53.639C563.154 53.1894 563.812 52.7037 564.443 52.184L564.946 52.804L564.953 52.814L565.568 53.572L566.35 54.536L566.412 54.611L567.718 56.212L568.093 56.672C567.596 57.009 567.113 57.326 566.627 57.602C566.063 57.9174 565.488 58.2142 564.904 58.492C564.583 58.6446 564.259 58.7913 563.932 58.932C558.958 61.062 553.904 61.383 548.871 59.862C544.133 58.432 540.909 55.867 539.017 52.022C538.983 51.954 538.95 51.883 538.918 51.815C541.87 54.717 545.796 56.422 550.658 56.904Z" fill="#85144B"/>
<path d="M545.445 48.308C547.086 49.7173 548.741 51.1107 550.409 52.488C550.806 52.813 551.357 52.975 551.912 52.975C552.499 52.975 553.09 52.793 553.502 52.433C555.274 50.887 557.035 49.283 558.738 47.733L559.582 46.965C559.908 46.666 560.045 46.324 560.126 46.118C560.283 45.796 560.329 45.4312 560.257 45.0803C560.185 44.7293 559.999 44.4121 559.728 44.178L553.017 38.374C552.716 38.113 552.329 37.9721 551.93 37.978C551.532 37.9839 551.149 38.1362 550.856 38.406L544.01 44.688C543.841 44.8438 543.706 45.0338 543.616 45.2453C543.525 45.4569 543.481 45.6853 543.485 45.9154C543.49 46.1454 543.543 46.3719 543.641 46.58C543.739 46.788 543.881 46.9727 544.056 47.122L545.445 48.308ZM551.985 41.779L556.327 45.533C554.864 46.8713 553.39 48.1977 551.905 49.512C550.447 48.2998 548.998 47.0765 547.559 45.842L551.985 41.779Z" fill="#85144B"/>
<path d="M641.255 58.46C636.788 58.46 633.378 57.1133 631.025 54.42C628.665 51.72 627.485 47.82 627.485 42.72V16.19C627.485 11.4033 628.652 7.77333 630.985 5.3C633.325 2.82666 636.748 1.59 641.255 1.59C645.762 1.59 649.185 2.82666 651.525 5.3C653.865 7.77333 655.035 11.4033 655.035 16.19V42.72C655.035 47.82 653.855 51.72 651.495 54.42C649.135 57.1133 645.722 58.46 641.255 58.46ZM641.355 48.18C643.048 48.18 643.895 46.54 643.895 43.26V16C643.895 13.2467 643.068 11.87 641.415 11.87C639.555 11.87 638.625 13.2767 638.625 16.09V43.32C638.625 45.06 638.835 46.3033 639.255 47.05C639.682 47.8033 640.382 48.18 641.355 48.18Z" fill="white"/>
<path d="M659.535 57.95V2.09H676.545L681.245 36.15L685.915 2.09H703.085V57.95H692.865V17.71L686.455 57.95H676.425L669.625 17.71V57.95H659.535Z" fill="white"/>
<path d="M708.035 57.95V2.09H719.075V24.47L724.285 2.09H735.515L729.265 27.68L736.815 57.95H725.235L719.145 30.91V57.95H708.035Z" fill="white"/>
<path d="M737.205 57.95L742.595 2.09H761.545L766.845 57.95H756.275L755.485 48.94H748.755L748.055 57.95H737.205ZM749.545 40.02H754.625L752.185 11.62H751.675L749.545 40.02Z" fill="white"/>
<path d="M770.275 57.95V2.09H787.415C790.268 2.09 792.425 2.74333 793.885 4.05C795.345 5.35 796.325 7.17 796.825 9.51C797.318 11.8433 797.565 14.5867 797.565 17.74C797.565 20.7867 797.178 23.22 796.405 25.04C795.638 26.86 794.185 28.12 792.045 28.82C793.798 29.18 795.032 30.0533 795.745 31.44C796.452 32.8267 796.805 34.62 796.805 36.82V57.95H785.795V36.09C785.795 34.4567 785.462 33.4467 784.795 33.06C784.128 32.6667 783.055 32.47 781.575 32.47V57.95H770.275ZM781.635 22.79H784.335C785.875 22.79 786.645 21.1067 786.645 17.74C786.645 15.56 786.478 14.1333 786.145 13.46C785.805 12.78 785.168 12.44 784.235 12.44H781.635V22.79Z" fill="white"/>
<path d="M820.865 57.95L814.865 2.09H825.785L828.865 37.36L832.005 2.09H842.415L845.395 37.36L848.375 2.09H859.425L853.335 57.95H839.935L837.145 31.07L834.475 57.95H820.865Z" fill="white"/>
<path d="M862.755 57.95V2.09H885.105V12.89H874.115V23.77H884.655V34.28H874.115V47.07H885.835V57.95H862.755Z" fill="white"/>
<path d="M889.515 57.95V2.09H904.875C908.895 2.09 911.922 3.20666 913.955 5.44C915.982 7.67333 916.995 10.9367 916.995 15.23V41.39C916.995 46.6767 916.072 50.76 914.225 53.64C912.372 56.5133 909.128 57.95 904.495 57.95H889.515ZM900.745 48.08H902.685C904.738 48.08 905.765 47.0867 905.765 45.1V16.28C905.765 14.42 905.515 13.22 905.015 12.68C904.522 12.14 903.512 11.87 901.985 11.87H900.745V48.08Z" fill="white"/>
<path d="M921.565 57.95V2.09H936.925C940.952 2.09 943.978 3.20666 946.005 5.44C948.038 7.67333 949.055 10.9367 949.055 15.23V41.39C949.055 46.6767 948.128 50.76 946.275 53.64C944.422 56.5133 941.178 57.95 936.545 57.95H921.565ZM932.805 48.08H934.735C936.788 48.08 937.815 47.0867 937.815 45.1V16.28C937.815 14.42 937.568 13.22 937.075 12.68C936.575 12.14 935.565 11.87 934.045 11.87H932.805V48.08Z" fill="white"/>
<path d="M953.115 57.95V2.09H963.905V57.95H953.115Z" fill="white"/>
<path d="M968.355 57.95V2.09H979.835L984.985 28.85V2.09H995.775V57.95H984.855L979.265 30.02V57.95H968.355Z" fill="white"/>
<path d="M1012.24 58.46C1004.26 58.46 1000.28 52.7467 1000.28 41.32V17.23C1000.28 6.80333 1004.85 1.59 1013.99 1.59C1017.75 1.59 1020.64 2.34666 1022.66 3.86C1024.67 5.37333 1026.06 7.57666 1026.82 10.47C1027.58 13.37 1027.96 16.9033 1027.96 21.07H1017.03V16.12C1017.03 14.9133 1016.87 13.9033 1016.54 13.09C1016.22 12.2767 1015.53 11.87 1014.49 11.87C1013.21 11.87 1012.36 12.3033 1011.95 13.17C1011.53 14.0367 1011.33 14.99 1011.33 16.03V43.1C1011.33 44.6 1011.52 45.8233 1011.91 46.77C1012.3 47.71 1013.07 48.18 1014.22 48.18C1015.4 48.18 1016.18 47.71 1016.58 46.77C1016.97 45.8233 1017.16 44.58 1017.16 43.04V35.07H1014.18V25.42H1027.83V57.95H1023.35L1021.45 53.26C1019.5 56.7267 1016.43 58.46 1012.24 58.46Z" fill="white"/>
<path d="M627.925 132.87V77.01H642.685C645.772 77.01 648.222 77.7 650.035 79.08C651.842 80.4533 653.135 82.41 653.915 84.95C654.702 87.49 655.095 90.5167 655.095 94.03C655.095 97.41 654.765 100.353 654.105 102.86C653.452 105.373 652.285 107.317 650.605 108.69C648.918 110.063 646.532 110.75 643.445 110.75H638.905V132.87H627.925ZM638.905 100.72H639.545C641.618 100.72 642.888 100.14 643.355 98.98C643.815 97.8133 644.045 96.0967 644.045 93.83C644.045 91.7167 643.818 90.0833 643.365 88.93C642.912 87.7767 641.838 87.2 640.145 87.2H638.905V100.72Z" fill="white"/>
<path d="M658.615 132.87V77.01H669.785V123.35H681.275V132.87H658.615Z" fill="white"/>
<path d="M682.925 132.87L688.325 77.01H707.275L712.575 132.87H702.005L701.205 123.86H694.485L693.785 132.87H682.925ZM695.275 114.94H700.355L697.905 86.53H697.405L695.275 114.94Z" fill="white"/>
<path d="M715.995 132.87V77.01H727.485L732.635 103.77V77.01H743.425V132.87H732.505L726.915 104.94V132.87H715.995Z" fill="white"/>
<path d="M748.375 132.87V77.01H759.865L765.005 103.77V77.01H775.795V132.87H764.875L759.295 104.94V132.87H748.375Z" fill="white"/>
<path d="M780.745 132.87V77.01H803.085V87.8H792.105V98.69H802.645V109.2H792.105V121.99H803.815V132.87H780.745Z" fill="white"/>
<path d="M807.505 132.87V77.01H824.635C827.495 77.01 829.655 77.6633 831.115 78.97C832.575 80.27 833.555 82.0867 834.055 84.42C834.548 86.76 834.795 89.5067 834.795 92.66C834.795 95.7067 834.408 98.14 833.635 99.96C832.862 101.78 831.408 103.04 829.275 103.74C831.028 104.1 832.262 104.973 832.975 106.36C833.682 107.74 834.035 109.533 834.035 111.74V132.87H823.025V111.01C823.025 109.377 822.692 108.363 822.025 107.97C821.358 107.583 820.282 107.39 818.795 107.39V132.87H807.505ZM818.865 97.71H821.565C823.105 97.71 823.875 96.0267 823.875 92.66C823.875 90.48 823.708 89.0533 823.375 88.38C823.035 87.7 822.398 87.36 821.465 87.36H818.865V97.71Z" fill="white"/>
<path d="M851.745 133.38C846.645 133.38 842.968 132.11 840.715 129.57C838.462 127.03 837.335 122.99 837.335 117.45V111.99H848.375V118.97C848.375 120.263 848.572 121.273 848.965 122C849.358 122.733 850.042 123.1 851.015 123.1C852.028 123.1 852.732 122.803 853.125 122.21C853.518 121.617 853.715 120.643 853.715 119.29C853.715 117.577 853.545 116.143 853.205 114.99C852.865 113.837 852.278 112.737 851.445 111.69C850.605 110.643 849.445 109.42 847.965 108.02L842.955 103.26C839.208 99.7267 837.335 95.6867 837.335 91.14C837.335 86.38 838.442 82.75 840.655 80.25C842.862 77.7567 846.062 76.51 850.255 76.51C855.375 76.51 859.008 77.8733 861.155 80.6C863.302 83.3267 864.375 87.4733 864.375 93.04H853.015V89.2C853.015 88.44 852.798 87.8467 852.365 87.42C851.932 87 851.345 86.79 850.605 86.79C849.712 86.79 849.058 87.0367 848.645 87.53C848.238 88.03 848.035 88.67 848.035 89.45C848.035 90.2367 848.245 91.0833 848.665 91.99C849.092 92.9033 849.928 93.9533 851.175 95.14L857.615 101.33C858.908 102.557 860.095 103.85 861.175 105.21C862.248 106.577 863.115 108.163 863.775 109.97C864.428 111.783 864.755 113.99 864.755 116.59C864.755 121.837 863.788 125.947 861.855 128.92C859.915 131.893 856.545 133.38 851.745 133.38Z" fill="white"/>
</g>
<defs>
<clipPath id="clip0_1_49">
<rect width="1500" height="145" fill="white"/>
</clipPath>
</defs>
</svg>
