<svg width="570" height="145" viewBox="0 0 570 145" fill="none" xmlns="http://www.w3.org/2000/svg">
<path d="M80.563 10.232C81.2699 8.92241 82.378 7.87395 83.7247 7.24058C85.0713 6.6072 86.5856 6.42227 88.0451 6.71294C89.5046 7.00361 90.8325 7.75457 91.8337 8.85555C92.835 9.95653 93.4568 11.3495 93.608 12.83C93.7426 14.0718 94.2089 15.2545 94.958 16.2539C95.7072 17.2534 96.7116 18.0327 97.8658 18.5102C99.02 18.9877 100.281 19.1456 101.518 18.9675C102.754 18.7894 103.92 18.2818 104.892 17.498C110.192 13.224 117.852 18.353 115.936 24.884C115.585 26.0824 115.563 27.3533 115.872 28.5633C116.181 29.7733 116.81 30.8778 117.693 31.7609C118.576 32.644 119.681 33.2731 120.891 33.5822C122.101 33.8914 123.372 33.8692 124.57 33.518C125.993 33.0973 127.513 33.1425 128.909 33.6471C130.304 34.1516 131.502 35.089 132.327 36.3224C133.151 37.5558 133.56 39.0207 133.494 40.503C133.427 41.9854 132.888 43.4076 131.956 44.562C131.172 45.5345 130.665 46.7 130.486 47.9363C130.308 49.1726 130.466 50.4341 130.944 51.5883C131.421 52.7425 132.201 53.7468 133.2 54.496C134.2 55.2452 135.382 55.7115 136.624 55.846C138.105 55.9972 139.498 56.6191 140.598 57.6203C141.699 58.6216 142.45 59.9494 142.741 61.4089C143.032 62.8685 142.847 64.3827 142.213 65.7294C141.58 67.076 140.532 68.1841 139.222 68.891C138.127 69.4903 137.213 70.3732 136.576 71.4471C135.94 72.5211 135.604 73.7465 135.604 74.995C135.604 76.2434 135.94 77.4689 136.576 78.5429C137.213 79.6168 138.127 80.4997 139.222 81.099C140.532 81.8058 141.58 82.914 142.213 84.2606C142.847 85.6073 143.032 87.1215 142.741 88.581C142.45 90.0405 141.699 91.3684 140.598 92.3697C139.498 93.3709 138.105 93.9928 136.624 94.144C135.382 94.2785 134.2 94.7448 133.2 95.494C132.201 96.2431 131.421 97.2475 130.944 98.4017C130.466 99.5559 130.308 100.817 130.486 102.054C130.665 103.29 131.172 104.456 131.956 105.428C136.23 110.728 131.101 118.388 124.57 116.472C123.372 116.121 122.101 116.099 120.891 116.408C119.681 116.717 118.576 117.346 117.693 118.229C116.81 119.112 116.181 120.217 115.872 121.427C115.563 122.637 115.585 123.908 115.936 125.106C116.357 126.529 116.312 128.049 115.807 129.445C115.302 130.84 114.365 132.038 113.132 132.862C111.898 133.687 110.433 134.096 108.951 134.03C107.469 133.963 106.046 133.424 104.892 132.492C103.92 131.708 102.754 131.201 101.518 131.022C100.281 130.844 99.02 131.002 97.8658 131.48C96.7116 131.957 95.7072 132.737 94.958 133.736C94.2089 134.736 93.7426 135.918 93.608 137.16C93.4568 138.64 92.835 140.033 91.8337 141.134C90.8325 142.235 89.5046 142.986 88.0451 143.277C86.5856 143.568 85.0713 143.383 83.7247 142.749C82.378 142.116 81.2699 141.068 80.563 139.758C79.9638 138.663 79.0809 137.749 78.0069 137.112C76.933 136.476 75.7075 136.14 74.459 136.14C73.2106 136.14 71.9851 136.476 70.9112 137.112C69.8372 137.749 68.9543 138.663 68.355 139.758C67.6482 141.068 66.5401 142.116 65.1934 142.749C63.8468 143.383 62.3325 143.568 60.873 143.277C59.4135 142.986 58.0856 142.235 57.0844 141.134C56.0831 140.033 55.4612 138.64 55.31 137.16C55.1755 135.918 54.7092 134.736 53.9601 133.736C53.2109 132.737 52.2065 131.957 51.0523 131.48C49.8981 131.002 48.6367 130.844 47.4004 131.022C46.1641 131.201 44.9985 131.708 44.026 132.492C42.8716 133.424 41.4494 133.963 39.9671 134.03C38.4847 134.096 37.0199 133.687 35.7865 132.862C34.5531 132.038 33.6156 130.84 33.1111 129.445C32.6066 128.049 32.5613 126.529 32.982 125.106C33.3333 123.908 33.3555 122.637 33.0463 121.427C32.7371 120.217 32.108 119.112 31.2249 118.229C30.3418 117.346 29.2374 116.717 28.0274 116.408C26.8174 116.099 25.5465 116.121 24.348 116.472C22.9251 116.893 21.4049 116.847 20.0095 116.343C18.6141 115.838 17.4165 114.901 16.5916 113.668C15.7667 112.434 15.3577 110.969 15.4244 109.487C15.491 108.005 16.0298 106.582 16.962 105.428C17.7459 104.456 18.2535 103.29 18.4316 102.054C18.6097 100.817 18.4517 99.5559 17.9743 98.4017C17.4968 97.2475 16.7174 96.2431 15.718 95.494C14.7185 94.7448 13.5358 94.2785 12.294 94.144C10.8136 93.9928 9.42058 93.3709 8.3196 92.3697C7.21862 91.3684 6.46766 90.0405 6.17699 88.581C5.88632 87.1215 6.07125 85.6073 6.70463 84.2606C7.33801 82.914 8.38646 81.8058 9.69604 81.099C10.7913 80.4997 11.7051 79.6168 12.3417 78.5429C12.9782 77.4689 13.3141 76.2434 13.3141 74.995C13.3141 73.7465 12.9782 72.5211 12.3417 71.4471C11.7051 70.3732 10.7913 69.4903 9.69604 68.891C8.38646 68.1841 7.33801 67.076 6.70463 65.7294C6.07125 64.3827 5.88632 62.8685 6.17699 61.4089C6.46766 59.9494 7.21862 58.6216 8.3196 57.6203C9.42058 56.6191 10.8136 55.9972 12.294 55.846C13.5358 55.7115 14.7185 55.2452 15.718 54.496C16.7174 53.7468 17.4968 52.7425 17.9743 51.5883C18.4517 50.4341 18.6097 49.1726 18.4316 47.9363C18.2535 46.7 17.7459 45.5345 16.962 44.562C12.688 39.262 17.817 31.602 24.348 33.518C25.5465 33.8692 26.8174 33.8914 28.0274 33.5822C29.2374 33.2731 30.3418 32.644 31.2249 31.7609C32.108 30.8778 32.7371 29.7733 33.0463 28.5633C33.3555 27.3533 33.3333 26.0824 32.982 24.884C32.5613 23.461 32.6066 21.9409 33.1111 20.5454C33.6156 19.15 34.5531 17.9524 35.7865 17.1275C37.0199 16.3026 38.4847 15.8937 39.9671 15.9603C41.4494 16.027 42.8716 16.5657 44.026 17.498C44.9985 18.2818 46.1641 18.7894 47.4004 18.9675C48.6367 19.1456 49.8981 18.9877 51.0523 18.5102C52.2065 18.0327 53.2109 17.2534 53.9601 16.2539C54.7092 15.2545 55.1755 14.0718 55.31 12.83C55.4612 11.3495 56.0831 9.95653 57.0844 8.85555C58.0856 7.75457 59.4135 7.00361 60.873 6.71294C62.3325 6.42227 63.8468 6.6072 65.1934 7.24058C66.5401 7.87395 67.6482 8.92241 68.355 10.232C68.9543 11.3272 69.8372 12.241 70.9112 12.8776C71.9851 13.5142 73.2106 13.8501 74.459 13.8501C75.7075 13.8501 76.933 13.5142 78.0069 12.8776C79.0809 12.241 79.9638 11.3272 80.563 10.232Z" fill="white"/>
<path d="M106.014 71.566C102.071 67.232 97.729 65.336 92.729 65.754C87.826 66.17 84.171 67.959 81.554 71.228C80.77 72.207 80.087 73.244 79.427 74.246C78.947 74.974 78.495 75.663 78.007 76.33C77.087 77.586 76.133 78.887 75.044 79.976C74.279 80.739 73.098 81.586 71.809 81.288C70.851 81.066 69.887 80.721 68.889 80.334L68.976 80.272C74.201 76.579 76.408 72.22 75.726 66.947C75.087 62.007 72.424 58.719 68.024 57.439C66.144 56.894 64.064 56.475 61.84 56.196C56.182 55.486 51.003 57.333 47.125 59.021C46.299 59.381 45.5 59.792 44.726 60.191C44.37 60.374 44.01 60.559 43.643 60.741C43.4483 60.8381 43.275 60.9734 43.1335 61.1387C42.9919 61.304 42.885 61.496 42.819 61.7034C42.7529 61.9107 42.7292 62.1292 42.7491 62.3459C42.7691 62.5626 42.8323 62.7731 42.935 62.965L47.597 71.653C47.7993 72.0296 48.1418 72.3115 48.5504 72.4374C48.959 72.5634 49.4007 72.5233 49.78 72.326L50.208 72.101C50.418 71.989 50.588 71.898 50.762 71.815C51.403 71.511 52.042 71.198 52.68 70.885C54.084 70.197 55.536 69.485 56.98 68.895C60.37 67.51 63.524 67.699 66.62 69.47C67.207 69.807 67.476 70.147 67.313 71.069C67.082 72.379 66.259 73.219 64.474 73.971C62.334 74.871 59.923 75.003 57.104 74.371C56.406 74.216 55.712 74.045 54.958 73.861L53.811 73.581C53.5342 73.5148 53.2449 73.5224 52.9719 73.6031C52.6989 73.6837 52.4519 73.8345 52.2555 74.0405C52.059 74.2464 51.9201 74.5003 51.8524 74.7768C51.7848 75.0532 51.7908 75.3426 51.87 75.616L55.13 86.81C55.1934 87.027 55.3013 87.2283 55.4468 87.4013C55.5924 87.5742 55.7724 87.7149 55.9753 87.8143C56.1783 87.9138 56.3998 87.9699 56.6256 87.9789C56.8515 87.988 57.0767 87.9499 57.287 87.867C59.666 86.927 61.887 87.017 63.935 87.252C66.683 87.57 67.811 89.315 68.24 90.326C68.965 92.04 68.762 94.023 67.721 95.378C66.416 97.08 64.741 98.3 62.603 99.109C59.289 100.363 55.911 99.973 53.043 99.425C50.25 98.892 47.933 97.694 45.96 95.762C43.262 93.12 41.328 89.76 39.873 85.185C39.467 83.909 39.149 82.611 38.813 81.236C38.658 80.602 38.502 79.965 38.336 79.326C38.2513 78.9934 38.0638 78.696 37.8002 78.4762C37.5366 78.2565 37.2104 78.1255 36.868 78.102C36.5272 78.0761 36.187 78.1602 35.8976 78.342C35.6082 78.5238 35.3847 78.7937 35.26 79.112C35.12 79.3775 35.0391 79.6702 35.023 79.97C34.991 80.693 34.936 81.419 34.882 82.145C34.752 83.859 34.619 85.631 34.782 87.417C35.368 93.799 37.872 99.537 42.225 104.469C47.283 110.2 53.78 112.232 59.695 112.232C62.89 112.232 65.917 111.638 68.453 110.713C72.008 109.418 74.428 107.478 75.85 104.785C77.063 102.489 77.782 99.815 78.052 96.609C78.328 93.319 77.352 90.259 76.362 87.699L76.345 87.656L76.633 87.681C77.81 87.784 79.018 87.891 80.244 87.82C80.1937 87.924 80.1541 88.0329 80.126 88.145C80.046 88.458 79.951 88.77 79.856 89.082C79.615 89.869 79.342 90.762 79.3 91.719C79.143 95.298 79.952 98.716 81.702 101.877C82.962 104.152 84.629 105.768 86.66 106.682C95.372 110.602 104.585 107.274 108.567 98.766C110.367 94.924 111.16 90.659 111.065 85.346C110.969 79.703 109.314 75.196 106.014 71.566ZM102.405 89.113C100.166 93.221 93.997 95.847 89.202 94.727C86.183 94.024 84.489 92.367 83.871 89.514C83.814 89.252 83.769 88.987 83.723 88.722L83.649 88.298C83.5777 87.9111 83.3689 87.563 83.061 87.318C85.936 86.431 88.421 84.428 90.612 81.242C92.081 79.108 93.481 77.439 94.892 76.139C96.144 74.989 97.765 74.562 99.343 74.967C100.973 75.387 102.232 76.591 102.795 78.271C103.205 79.4988 103.479 80.7681 103.61 82.056C103.884 84.816 103.489 87.123 102.405 89.113ZM74.816 96.339C74.581 99.139 73.996 101.341 72.979 103.269C71.936 105.245 70.145 106.641 67.342 107.662C61.073 109.948 51.372 109.92 44.664 102.321C41.674 98.933 39.661 95.124 38.655 90.961C40.006 93.769 41.653 96.091 43.688 98.083C46.099 100.443 49.043 101.97 52.435 102.618C55.555 103.213 59.661 103.698 63.755 102.148C66.477 101.118 68.617 99.55 70.301 97.356C72.042 95.089 72.408 91.832 71.233 89.059C70.036 86.229 67.512 84.395 64.309 84.024C62.4 83.804 60.186 83.687 57.784 84.297L55.775 77.401C55.982 77.45 56.189 77.497 56.395 77.543C59.895 78.323 62.95 78.136 65.735 76.966C67.515 76.216 69.946 74.848 70.514 71.633C70.894 69.479 70.085 67.709 68.234 66.65C64.267 64.378 60.068 64.123 55.751 65.887C54.205 66.518 52.703 67.255 51.251 67.967C50.738 68.217 50.225 68.47 49.709 68.717L46.583 62.89C47.1857 62.5739 47.7984 62.2771 48.42 62C52.134 60.385 56.583 58.818 61.434 59.42C63.487 59.679 65.398 60.061 67.114 60.561C70.265 61.477 72.027 63.703 72.501 67.365C73.029 71.443 71.362 74.605 67.098 77.619C66.6 77.971 66.084 78.297 65.488 78.676C65.17 78.876 64.83 79.093 64.458 79.333C64.2048 79.4972 64.0023 79.7287 63.8731 80.0016C63.744 80.2744 63.6934 80.5778 63.7269 80.8778C63.7605 81.1777 63.8768 81.4624 64.063 81.7C64.2491 81.9376 64.4978 82.1187 64.781 82.223C65.441 82.464 66.074 82.718 66.695 82.964C68.169 83.551 69.562 84.105 71.072 84.456C71.6358 84.5884 72.2169 84.6316 72.794 84.584C72.5277 84.8057 72.3392 85.1067 72.2561 85.4432C72.173 85.7796 72.1996 86.1338 72.332 86.454L72.695 87.324C72.923 87.867 73.135 88.368 73.331 88.874C74.233 91.199 75.035 93.714 74.816 96.339ZM80.784 84.507C79.587 84.677 78.289 84.563 76.916 84.445C76.26 84.388 75.602 84.33 74.946 84.303C74.785 84.296 74.626 84.278 74.426 84.258L74.336 84.249C75.383 83.878 76.401 83.213 77.34 82.274C78.605 81.009 79.68 79.544 80.627 78.251C81.15 77.5245 81.6545 76.785 82.14 76.033C82.787 75.05 83.399 74.121 84.088 73.26C86.118 70.725 89.034 69.33 93.001 68.993C96.887 68.658 100.196 70.102 103.389 73.516C102.454 72.7092 101.346 72.1295 100.15 71.822C97.525 71.145 94.736 71.867 92.69 73.75C91.097 75.217 89.54 77.065 87.933 79.402C85.807 82.492 83.537 84.114 80.784 84.507ZM105.625 97.39C102.431 104.219 95.017 106.881 87.995 103.72C86.6 103.091 85.472 101.975 84.547 100.304C83.5322 98.4904 82.8842 96.4948 82.64 94.431C84.005 96.138 85.967 97.311 88.465 97.892C94.648 99.332 102.338 96.024 105.258 90.668C106.666 88.088 107.183 85.165 106.842 81.734C106.689 80.2039 106.364 78.6958 105.875 77.238C105.773 76.9358 105.656 76.6394 105.522 76.35C107.002 78.884 107.757 81.874 107.819 85.404C107.903 90.204 107.206 94.012 105.625 97.39Z" fill="#85144B"/>
<path d="M82.932 62.974C85.348 63.703 87.765 64.067 90.172 64.067C93.425 64.067 96.662 63.398 99.864 62.071L99.894 62.063L99.927 62.047C100.402 61.8468 100.872 61.6344 101.336 61.41C101.416 61.371 101.498 61.339 101.579 61.3C102.135 61.027 102.684 60.7379 103.223 60.433C103.986 60.002 104.705 59.51 105.4 59.032C105.716 58.815 106.036 58.596 106.367 58.377C106.556 58.2518 106.717 58.0884 106.84 57.8972C106.962 57.706 107.043 57.4913 107.077 57.2669C107.112 57.0425 107.099 56.8134 107.039 56.5944C106.98 56.3753 106.875 56.1711 106.732 55.995L105.304 54.243L105.206 54.124C104.511 53.2725 103.817 52.4201 103.124 51.567C102.576 50.8919 102.03 50.2152 101.486 49.537C101.005 48.937 100.439 48.603 99.801 48.542C98.835 48.438 98.135 49.042 97.906 49.236C97.066 49.95 96.364 50.483 95.698 50.916C92.364 53.089 89.185 53.989 85.978 53.672C79.668 53.047 75.419 50.146 72.988 44.802C72.8437 44.4813 72.5992 44.2161 72.2913 44.0463C71.9833 43.8766 71.6285 43.8114 71.2803 43.8607C70.9321 43.91 70.6093 44.0711 70.3606 44.3196C70.1118 44.5682 69.9505 44.8908 69.901 45.239C69.459 48.232 69.852 50.921 71.101 53.459C73.381 58.091 77.363 61.291 82.932 62.974ZM85.658 56.904C89.631 57.303 93.495 56.23 97.472 53.639C98.1544 53.1894 98.8123 52.7037 99.443 52.184L99.946 52.804L99.953 52.814L100.568 53.572L101.35 54.536L101.412 54.611L102.718 56.212L103.093 56.672C102.596 57.009 102.113 57.326 101.627 57.602C101.063 57.9174 100.488 58.2142 99.904 58.492C99.5827 58.6446 99.2587 58.7913 98.932 58.932C93.958 61.062 88.904 61.383 83.871 59.862C79.133 58.432 75.909 55.867 74.017 52.022C73.983 51.954 73.95 51.883 73.918 51.815C76.87 54.717 80.796 56.422 85.658 56.904Z" fill="#85144B"/>
<path d="M80.445 48.308C82.0861 49.7173 83.7409 51.1107 85.409 52.488C85.806 52.813 86.357 52.975 86.912 52.975C87.499 52.975 88.09 52.793 88.502 52.433C90.274 50.887 92.035 49.283 93.738 47.733L94.582 46.965C94.908 46.666 95.045 46.324 95.126 46.118C95.283 45.796 95.3292 45.4312 95.2572 45.0803C95.1852 44.7293 94.9991 44.4121 94.728 44.178L88.017 38.374C87.7157 38.113 87.3289 37.9721 86.9304 37.978C86.5318 37.9839 86.1494 38.1362 85.856 38.406L79.01 44.688C78.8406 44.8438 78.7063 45.0338 78.6158 45.2453C78.5253 45.4569 78.4808 45.6853 78.4852 45.9154C78.4895 46.1454 78.5426 46.3719 78.641 46.58C78.7394 46.788 78.8809 46.9727 79.056 47.122L80.445 48.308ZM86.985 41.779L91.327 45.533C89.8638 46.8713 88.3897 48.1977 86.905 49.512C85.4469 48.2998 83.9982 47.0765 82.559 45.842L86.985 41.779Z" fill="#85144B"/>
<path d="M176.255 58.46C171.788 58.46 168.378 57.1133 166.025 54.42C163.665 51.72 162.485 47.82 162.485 42.72V16.19C162.485 11.4033 163.652 7.77333 165.985 5.3C168.325 2.82666 171.748 1.59 176.255 1.59C180.762 1.59 184.185 2.82666 186.525 5.3C188.865 7.77333 190.035 11.4033 190.035 16.19V42.72C190.035 47.82 188.855 51.72 186.495 54.42C184.135 57.1133 180.722 58.46 176.255 58.46ZM176.355 48.18C178.048 48.18 178.895 46.54 178.895 43.26V16C178.895 13.2467 178.068 11.87 176.415 11.87C174.555 11.87 173.625 13.2767 173.625 16.09V43.32C173.625 45.06 173.835 46.3033 174.255 47.05C174.682 47.8033 175.382 48.18 176.355 48.18Z" fill="white"/>
<path d="M194.535 57.95V2.09H211.545L216.245 36.15L220.915 2.09H238.085V57.95H227.865V17.71L221.455 57.95H211.425L204.625 17.71V57.95H194.535Z" fill="white"/>
<path d="M243.035 57.95V2.09H254.075V24.47L259.285 2.09H270.515L264.265 27.68L271.815 57.95H260.235L254.145 30.91V57.95H243.035Z" fill="white"/>
<path d="M272.205 57.95L277.595 2.09H296.545L301.845 57.95H291.275L290.485 48.94H283.755L283.055 57.95H272.205ZM284.545 40.02H289.625L287.185 11.62H286.675L284.545 40.02Z" fill="white"/>
<path d="M305.275 57.95V2.09H322.415C325.268 2.09 327.425 2.74333 328.885 4.05C330.345 5.35 331.325 7.17 331.825 9.51C332.318 11.8433 332.565 14.5867 332.565 17.74C332.565 20.7867 332.178 23.22 331.405 25.04C330.638 26.86 329.185 28.12 327.045 28.82C328.798 29.18 330.032 30.0533 330.745 31.44C331.452 32.8267 331.805 34.62 331.805 36.82V57.95H320.795V36.09C320.795 34.4567 320.462 33.4467 319.795 33.06C319.128 32.6667 318.055 32.47 316.575 32.47V57.95H305.275ZM316.635 22.79H319.335C320.875 22.79 321.645 21.1067 321.645 17.74C321.645 15.56 321.478 14.1333 321.145 13.46C320.805 12.78 320.168 12.44 319.235 12.44H316.635V22.79Z" fill="white"/>
<path d="M355.865 57.95L349.865 2.09H360.785L363.865 37.36L367.005 2.09H377.415L380.395 37.36L383.375 2.09H394.425L388.335 57.95H374.935L372.145 31.07L369.475 57.95H355.865Z" fill="white"/>
<path d="M397.755 57.95V2.09H420.105V12.89H409.115V23.77H419.655V34.28H409.115V47.07H420.835V57.95H397.755Z" fill="white"/>
<path d="M424.515 57.95V2.09H439.875C443.895 2.09 446.922 3.20666 448.955 5.44C450.982 7.67333 451.995 10.9367 451.995 15.23V41.39C451.995 46.6767 451.072 50.76 449.225 53.64C447.372 56.5133 444.128 57.95 439.495 57.95H424.515ZM435.745 48.08H437.685C439.738 48.08 440.765 47.0867 440.765 45.1V16.28C440.765 14.42 440.515 13.22 440.015 12.68C439.522 12.14 438.512 11.87 436.985 11.87H435.745V48.08Z" fill="white"/>
<path d="M456.565 57.95V2.09H471.925C475.952 2.09 478.978 3.20666 481.005 5.44C483.038 7.67333 484.055 10.9367 484.055 15.23V41.39C484.055 46.6767 483.128 50.76 481.275 53.64C479.422 56.5133 476.178 57.95 471.545 57.95H456.565ZM467.805 48.08H469.735C471.788 48.08 472.815 47.0867 472.815 45.1V16.28C472.815 14.42 472.568 13.22 472.075 12.68C471.575 12.14 470.565 11.87 469.045 11.87H467.805V48.08Z" fill="white"/>
<path d="M488.115 57.95V2.09H498.905V57.95H488.115Z" fill="white"/>
<path d="M503.355 57.95V2.09H514.835L519.985 28.85V2.09H530.775V57.95H519.855L514.265 30.02V57.95H503.355Z" fill="white"/>
<path d="M547.245 58.46C539.265 58.46 535.275 52.7467 535.275 41.32V17.23C535.275 6.80333 539.848 1.59 548.995 1.59C552.755 1.59 555.642 2.34666 557.655 3.86C559.668 5.37333 561.055 7.57666 561.815 10.47C562.575 13.37 562.955 16.9033 562.955 21.07H552.035V16.12C552.035 14.9133 551.872 13.9033 551.545 13.09C551.218 12.2767 550.535 11.87 549.495 11.87C548.208 11.87 547.358 12.3033 546.945 13.17C546.532 14.0367 546.325 14.99 546.325 16.03V43.1C546.325 44.6 546.522 45.8233 546.915 46.77C547.302 47.71 548.068 48.18 549.215 48.18C550.395 48.18 551.182 47.71 551.575 46.77C551.968 45.8233 552.165 44.58 552.165 43.04V35.07H549.185V25.42H562.825V57.95H558.355L556.445 53.26C554.498 56.7267 551.432 58.46 547.245 58.46Z" fill="white"/>
<path d="M162.925 132.87V77.01H177.685C180.772 77.01 183.222 77.7 185.035 79.08C186.842 80.4533 188.135 82.41 188.915 84.95C189.702 87.49 190.095 90.5167 190.095 94.03C190.095 97.41 189.765 100.353 189.105 102.86C188.452 105.373 187.285 107.317 185.605 108.69C183.918 110.063 181.532 110.75 178.445 110.75H173.905V132.87H162.925ZM173.905 100.72H174.545C176.618 100.72 177.888 100.14 178.355 98.98C178.815 97.8133 179.045 96.0967 179.045 93.83C179.045 91.7167 178.818 90.0833 178.365 88.93C177.912 87.7767 176.838 87.2 175.145 87.2H173.905V100.72Z" fill="white"/>
<path d="M193.615 132.87V77.01H204.785V123.35H216.275V132.87H193.615Z" fill="white"/>
<path d="M217.925 132.87L223.325 77.01H242.275L247.575 132.87H237.005L236.205 123.86H229.485L228.785 132.87H217.925ZM230.275 114.94H235.355L232.905 86.53H232.405L230.275 114.94Z" fill="white"/>
<path d="M250.995 132.87V77.01H262.485L267.635 103.77V77.01H278.425V132.87H267.505L261.915 104.94V132.87H250.995Z" fill="white"/>
<path d="M283.375 132.87V77.01H294.865L300.005 103.77V77.01H310.795V132.87H299.875L294.295 104.94V132.87H283.375Z" fill="white"/>
<path d="M315.745 132.87V77.01H338.085V87.8H327.105V98.69H337.645V109.2H327.105V121.99H338.815V132.87H315.745Z" fill="white"/>
<path d="M342.505 132.87V77.01H359.635C362.495 77.01 364.655 77.6633 366.115 78.97C367.575 80.27 368.555 82.0867 369.055 84.42C369.548 86.76 369.795 89.5067 369.795 92.66C369.795 95.7067 369.408 98.14 368.635 99.96C367.862 101.78 366.408 103.04 364.275 103.74C366.028 104.1 367.262 104.973 367.975 106.36C368.682 107.74 369.035 109.533 369.035 111.74V132.87H358.025V111.01C358.025 109.377 357.692 108.363 357.025 107.97C356.358 107.583 355.282 107.39 353.795 107.39V132.87H342.505ZM353.865 97.71H356.565C358.105 97.71 358.875 96.0267 358.875 92.66C358.875 90.48 358.708 89.0533 358.375 88.38C358.035 87.7 357.398 87.36 356.465 87.36H353.865V97.71Z" fill="white"/>
<path d="M386.745 133.38C381.645 133.38 377.968 132.11 375.715 129.57C373.462 127.03 372.335 122.99 372.335 117.45V111.99H383.375V118.97C383.375 120.263 383.572 121.273 383.965 122C384.358 122.733 385.042 123.1 386.015 123.1C387.028 123.1 387.732 122.803 388.125 122.21C388.518 121.617 388.715 120.643 388.715 119.29C388.715 117.577 388.545 116.143 388.205 114.99C387.865 113.837 387.278 112.737 386.445 111.69C385.605 110.643 384.445 109.42 382.965 108.02L377.955 103.26C374.208 99.7267 372.335 95.6867 372.335 91.14C372.335 86.38 373.442 82.75 375.655 80.25C377.862 77.7567 381.062 76.51 385.255 76.51C390.375 76.51 394.008 77.8733 396.155 80.6C398.302 83.3267 399.375 87.4733 399.375 93.04H388.015V89.2C388.015 88.44 387.798 87.8467 387.365 87.42C386.932 87 386.345 86.79 385.605 86.79C384.712 86.79 384.058 87.0367 383.645 87.53C383.238 88.03 383.035 88.67 383.035 89.45C383.035 90.2367 383.245 91.0833 383.665 91.99C384.092 92.9033 384.928 93.9533 386.175 95.14L392.615 101.33C393.908 102.557 395.095 103.85 396.175 105.21C397.248 106.577 398.115 108.163 398.775 109.97C399.428 111.783 399.755 113.99 399.755 116.59C399.755 121.837 398.788 125.947 396.855 128.92C394.915 131.893 391.545 133.38 386.745 133.38Z" fill="white"/>
</svg>
