<svg xmlns="http://www.w3.org/2000/svg" version="1.1" xmlns:xlink="http://www.w3.org/1999/xlink" width="1500" height="1500" viewBox="0 0 1500 1500"><rect width="1500" height="1500" x="0" y="0" id="background" stroke="transparent" fill="#ffffff"></rect><svg xml:space="preserve" width="1000" height="1000" data-version="2" data-id="lg_Y0tDL4V0hVEXLSZvMl" viewBox="0 0 569 145" x="250" y="250"><rect width="100%" height="100%" fill="transparent"></rect><path fill="#85144b" d="M80.063 10.232a6.958 6.958 0 0 1 13.045 2.598 6.958 6.958 0 0 0 11.284 4.668c5.3-4.274 12.96.855 11.044 7.386a6.958 6.958 0 0 0 8.634 8.634 6.958 6.958 0 0 1 7.386 11.044 6.958 6.958 0 0 0 4.668 11.284 6.958 6.958 0 0 1 2.598 13.045 6.958 6.958 0 0 0 0 12.208 6.958 6.958 0 0 1-2.598 13.045 6.958 6.958 0 0 0-4.668 11.284c4.274 5.3-.855 12.96-7.386 11.044a6.958 6.958 0 0 0-8.634 8.634 6.958 6.958 0 0 1-11.044 7.386 6.958 6.958 0 0 0-11.284 4.668 6.958 6.958 0 0 1-13.045 2.598 6.958 6.958 0 0 0-12.208 0 6.958 6.958 0 0 1-13.045-2.598 6.958 6.958 0 0 0-11.284-4.668 6.958 6.958 0 0 1-11.044-7.386 6.958 6.958 0 0 0-8.634-8.634 6.958 6.958 0 0 1-7.386-11.044 6.958 6.958 0 0 0-4.668-11.284 6.958 6.958 0 0 1-2.598-13.045 6.958 6.958 0 0 0 0-12.208 6.958 6.958 0 0 1 2.598-13.045 6.958 6.958 0 0 0 4.668-11.284c-4.274-5.3.855-12.96 7.386-11.044a6.958 6.958 0 0 0 8.634-8.634 6.958 6.958 0 0 1 11.044-7.386A6.958 6.958 0 0 0 54.81 12.83a6.958 6.958 0 0 1 13.045-2.598 6.958 6.958 0 0 0 12.208 0"></path><path fill="#fff" d="M105.514 71.566c-3.943-4.334-8.285-6.23-13.285-5.812-4.903.416-8.558 2.205-11.175 5.474-.784.979-1.467 2.016-2.127 3.018-.48.728-.932 1.417-1.42 2.084-.92 1.256-1.874 2.557-2.963 3.646-.765.763-1.946 1.61-3.235 1.312-.958-.222-1.922-.567-2.92-.954l.087-.062c5.225-3.693 7.432-8.052 6.75-13.325-.639-4.94-3.302-8.228-7.702-9.508-1.88-.545-3.96-.964-6.184-1.243-5.658-.71-10.837 1.137-14.715 2.825-.826.36-1.625.771-2.399 1.17-.356.183-.716.368-1.083.55a1.627 1.627 0 0 0-.708 2.224l4.662 8.688a1.626 1.626 0 0 0 2.183.673l.428-.225c.21-.112.38-.203.554-.286.641-.304 1.28-.617 1.918-.93 1.404-.688 2.856-1.4 4.3-1.99 3.39-1.385 6.544-1.196 9.64.575.587.337.856.677.693 1.599-.231 1.31-1.054 2.15-2.839 2.902-2.14.9-4.551 1.032-7.37.4-.698-.155-1.392-.326-2.146-.51l-1.147-.28a1.627 1.627 0 0 0-1.941 2.035l3.26 11.194a1.626 1.626 0 0 0 2.157 1.057c2.379-.94 4.6-.85 6.648-.615 2.748.318 3.876 2.063 4.305 3.074.725 1.714.522 3.697-.519 5.052-1.305 1.702-2.98 2.922-5.118 3.731-3.314 1.254-6.692.864-9.56.316-2.793-.533-5.11-1.731-7.083-3.663-2.698-2.642-4.632-6.002-6.087-10.577-.406-1.276-.724-2.574-1.06-3.949-.155-.634-.311-1.271-.477-1.91a1.63 1.63 0 0 0-1.468-1.224 1.597 1.597 0 0 0-1.608 1.01 2.079 2.079 0 0 0-.237.858c-.032.723-.087 1.449-.141 2.175-.13 1.714-.263 3.486-.1 5.272.586 6.382 3.09 12.12 7.443 17.052 5.058 5.731 11.555 7.763 17.47 7.763 3.195 0 6.222-.594 8.758-1.519 3.555-1.295 5.975-3.235 7.397-5.928 1.213-2.296 1.932-4.97 2.202-8.176.276-3.29-.7-6.35-1.69-8.91l-.017-.043.288.025c1.177.103 2.385.21 3.611.139a1.688 1.688 0 0 0-.118.325c-.08.313-.175.625-.27.937-.241.787-.514 1.68-.556 2.637-.157 3.579.652 6.997 2.402 10.158 1.26 2.275 2.927 3.891 4.958 4.805 8.712 3.92 17.925.592 21.907-7.916 1.8-3.842 2.593-8.107 2.498-13.42-.096-5.643-1.75-10.15-5.05-13.78m-3.61 17.547c-2.239 4.108-8.408 6.734-13.203 5.614-3.019-.703-4.713-2.36-5.331-5.213-.057-.262-.102-.527-.148-.792l-.074-.424a1.63 1.63 0 0 0-.588-.98c2.875-.887 5.36-2.89 7.551-6.076 1.469-2.134 2.869-3.803 4.28-5.103 1.252-1.15 2.873-1.577 4.451-1.172 1.63.42 2.889 1.624 3.452 3.304a17.555 17.555 0 0 1 .815 3.785c.274 2.76-.12 5.067-1.204 7.057m-27.59 7.226c-.235 2.8-.82 5.002-1.837 6.93-1.043 1.976-2.834 3.372-5.637 4.393-6.269 2.286-15.97 2.258-22.678-5.341-2.99-3.388-5.003-7.197-6.009-11.36 1.351 2.808 2.998 5.13 5.033 7.122 2.411 2.36 5.355 3.887 8.747 4.535 3.12.595 7.226 1.08 11.32-.47 2.722-1.03 4.862-2.598 6.546-4.792 1.741-2.267 2.107-5.524.932-8.297-1.197-2.83-3.721-4.664-6.924-5.035-1.909-.22-4.123-.337-6.525.273l-2.009-6.896c.207.049.414.096.62.142 3.5.78 6.555.593 9.34-.577 1.78-.75 4.211-2.118 4.779-5.333.38-2.154-.429-3.924-2.28-4.983-3.967-2.272-8.166-2.527-12.483-.763-1.546.631-3.048 1.368-4.5 2.08-.513.25-1.026.503-1.542.75l-3.126-5.827A32.044 32.044 0 0 1 47.92 62c3.714-1.615 8.163-3.182 13.014-2.58 2.053.259 3.964.641 5.68 1.141 3.151.916 4.913 3.142 5.387 6.804.528 4.078-1.139 7.24-5.403 10.254-.498.352-1.014.678-1.61 1.057-.318.2-.658.417-1.03.657a1.626 1.626 0 0 0 .323 2.89c.66.241 1.293.495 1.914.741 1.474.587 2.867 1.141 4.377 1.492a5.54 5.54 0 0 0 1.722.128 1.625 1.625 0 0 0-.462 1.87l.363.87c.228.543.44 1.044.636 1.55.902 2.325 1.703 4.84 1.484 7.465m5.969-11.832c-1.197.17-2.495.056-3.868-.062-.656-.057-1.314-.115-1.97-.142-.161-.007-.32-.025-.52-.045l-.09-.009c1.047-.371 2.065-1.036 3.004-1.975 1.265-1.265 2.34-2.73 3.287-4.023a53.015 53.015 0 0 0 1.513-2.218c.647-.983 1.259-1.912 1.948-2.773 2.03-2.535 4.946-3.93 8.913-4.267 3.886-.335 7.195 1.109 10.388 4.523a8.01 8.01 0 0 0-3.239-1.694c-2.625-.677-5.414.045-7.46 1.928-1.593 1.467-3.15 3.315-4.757 5.652-2.126 3.09-4.397 4.712-7.15 5.105m24.842 12.883c-3.194 6.829-10.608 9.491-17.63 6.33-1.395-.629-2.523-1.745-3.448-3.416a15.838 15.838 0 0 1-1.907-5.873c1.365 1.707 3.327 2.88 5.825 3.461 6.183 1.44 13.873-1.868 16.793-7.224 1.408-2.58 1.925-5.503 1.584-8.934a20.585 20.585 0 0 0-.967-4.496 8.837 8.837 0 0 0-.353-.888c1.48 2.534 2.235 5.524 2.297 9.054.084 4.8-.613 8.608-2.194 11.986"></path><path fill="#fff" d="M82.432 62.974c2.416.729 4.833 1.093 7.24 1.093 3.253 0 6.49-.669 9.692-1.996l.03-.008.033-.016a29.916 29.916 0 0 0 1.409-.637c.08-.039.162-.071.243-.11a31.89 31.89 0 0 0 1.644-.867c.763-.431 1.482-.923 2.177-1.401.316-.217.636-.436.967-.655a1.626 1.626 0 0 0 .365-2.382l-1.428-1.752-.098-.119a1438.121 1438.121 0 0 1-2.082-2.557 465.124 465.124 0 0 1-1.638-2.03c-.481-.6-1.047-.934-1.685-.995-.966-.104-1.666.5-1.895.694-.84.714-1.542 1.247-2.208 1.68-3.334 2.173-6.513 3.073-9.72 2.756-6.31-.625-10.559-3.526-12.99-8.87a1.623 1.623 0 0 0-3.087.437c-.442 2.993-.049 5.682 1.2 8.22 2.28 4.632 6.261 7.832 11.83 9.515m2.727-6.07c3.973.399 7.837-.674 11.814-3.265a22.992 22.992 0 0 0 1.971-1.455l.503.62.007.01.615.758.782.964.062.075 1.306 1.601.375.46c-.497.337-.98.654-1.466.93a29.573 29.573 0 0 1-1.723.89 28.908 28.908 0 0 1-.972.44c-4.974 2.13-10.028 2.451-15.061.93-4.738-1.43-7.962-3.995-9.854-7.84-.034-.068-.067-.139-.099-.207 2.952 2.902 6.878 4.608 11.74 5.09"></path><path fill="#fff" d="M79.945 48.308a335.251 335.251 0 0 0 4.964 4.18c.397.325.948.487 1.503.487.587 0 1.178-.182 1.59-.542 1.772-1.546 3.533-3.15 5.236-4.7l.844-.768c.326-.299.463-.641.544-.847a1.623 1.623 0 0 0-.398-1.94l-6.711-5.804a1.623 1.623 0 0 0-2.161.032l-6.846 6.282a1.626 1.626 0 0 0 .046 2.434zm6.54-6.529 4.342 3.754a365.958 365.958 0 0 1-4.422 3.979 369.942 369.942 0 0 1-4.346-3.67z"></path><path fill="#85144b" d="M175.755 58.46q-6.7 0-10.23-4.04-3.54-4.05-3.54-11.7V16.19q0-7.18 3.5-10.89 3.51-3.71 10.27-3.71t10.27 3.71q3.51 3.71 3.51 10.89v26.53q0 7.65-3.54 11.7-3.54 4.04-10.24 4.04m.1-10.28q2.54 0 2.54-4.92V16q0-4.13-2.48-4.13-2.79 0-2.79 4.22v27.23q0 2.61.63 3.73.64 1.13 2.1 1.13"></path><rect width="27.55" height="56.87" x="-13.78" y="-28.43" fill="none" rx="0" ry="0" transform="translate(176.26 30.53)"></rect><path fill="#85144b" d="M194.035 57.95V2.09h17.01l4.7 34.06 4.67-34.06h17.17v55.86h-10.22V17.71l-6.41 40.24h-10.03l-6.8-40.24v40.24Z"></path><rect width="43.55" height="55.86" x="-21.77" y="-27.93" fill="none" rx="0" ry="0" transform="translate(216.31 30.52)"></rect><path fill="#85144b" d="M242.535 57.95V2.09h11.04v22.38l5.21-22.38h11.23l-6.25 25.59 7.55 30.27h-11.58l-6.09-27.04v27.04Z"></path><rect width="28.78" height="55.86" x="-14.39" y="-27.93" fill="none" rx="0" ry="0" transform="translate(257.43 30.52)"></rect><path fill="#85144b" d="m271.705 57.95 5.39-55.86h18.95l5.3 55.86h-10.57l-.79-9.01h-6.73l-.7 9.01Zm12.34-17.93h5.08l-2.44-28.4h-.51Z"></path><rect width="29.64" height="55.86" x="-14.82" y="-27.93" fill="none" rx="0" ry="0" transform="translate(287.02 30.52)"></rect><path fill="#85144b" d="M304.775 57.95V2.09h17.14q4.28 0 6.47 1.96 2.19 1.95 2.94 5.46.74 3.5.74 8.23 0 4.57-1.16 7.3-1.15 2.73-4.36 3.78 2.63.54 3.7 2.62 1.06 2.08 1.06 5.38v21.13h-11.01V36.09q0-2.45-1-3.03-1-.59-3.22-.59v25.48Zm11.36-35.16h2.7q2.31 0 2.31-5.05 0-3.27-.5-4.28-.51-1.02-1.91-1.02h-2.6Z"></path><rect width="27.29" height="55.86" x="-13.64" y="-27.93" fill="none" rx="0" ry="0" transform="translate(318.92 30.52)"></rect><path fill="#85144b" d="m355.365 57.95-6-55.86h10.92l3.08 35.27 3.14-35.27h10.41l2.98 35.27 2.98-35.27h11.05l-6.09 55.86h-13.4l-2.79-26.88-2.67 26.88Z"></path><rect width="44.56" height="55.86" x="-22.28" y="-27.93" fill="none" rx="0" ry="0" transform="translate(372.14 30.52)"></rect><path fill="#85144b" d="M397.255 57.95V2.09h22.35v10.8h-10.99v10.88h10.54v10.51h-10.54v12.79h11.72v10.88Z"></path><rect width="23.08" height="55.86" x="-11.54" y="-27.93" fill="none" rx="0" ry="0" transform="translate(409.3 30.52)"></rect><path fill="#85144b" d="M424.015 57.95V2.09h15.36q6.03 0 9.08 3.35 3.04 3.35 3.04 9.79v26.16q0 7.93-2.77 12.25-2.78 4.31-9.73 4.31Zm11.23-9.87h1.94q3.08 0 3.08-2.98V16.28q0-2.79-.75-3.6-.74-.81-3.03-.81h-1.24Z"></path><rect width="27.48" height="55.86" x="-13.74" y="-27.93" fill="none" rx="0" ry="0" transform="translate(438.25 30.52)"></rect><path fill="#85144b" d="M456.065 57.95V2.09h15.36q6.04 0 9.08 3.35 3.05 3.35 3.05 9.79v26.16q0 7.93-2.78 12.25-2.78 4.31-9.73 4.31Zm11.24-9.87h1.93q3.08 0 3.08-2.98V16.28q0-2.79-.74-3.6-.75-.81-3.03-.81h-1.24Z"></path><rect width="27.49" height="55.86" x="-13.74" y="-27.93" fill="none" rx="0" ry="0" transform="translate(470.31 30.52)"></rect><path fill="#85144b" d="M487.615 57.95V2.09h10.79v55.86Z"></path><rect width="10.79" height="55.86" x="-5.39" y="-27.93" fill="none" rx="0" ry="0" transform="translate(493.51 30.52)"></rect><path fill="#85144b" d="M502.855 57.95V2.09h11.48l5.15 26.76V2.09h10.79v55.86h-10.92l-5.59-27.93v27.93Z"></path><rect width="27.42" height="55.86" x="-13.71" y="-27.93" fill="none" rx="0" ry="0" transform="translate(517.07 30.52)"></rect><path fill="#85144b" d="M546.745 58.46q-11.97 0-11.97-17.14V17.23q0-15.64 13.72-15.64 5.64 0 8.66 2.27 3.02 2.27 4.16 6.61 1.14 4.35 1.14 10.6h-10.92v-4.95q0-1.81-.49-3.03-.49-1.22-2.05-1.22-1.93 0-2.55 1.3-.62 1.3-.62 2.86V43.1q0 2.25.59 3.67.58 1.41 2.3 1.41 1.77 0 2.36-1.41.59-1.42.59-3.73v-7.97h-2.98v-9.65h13.64v32.53h-4.47l-1.91-4.69q-2.92 5.2-9.2 5.2"></path><rect width="27.68" height="56.87" x="-13.84" y="-28.43" fill="none" rx="0" ry="0" transform="translate(549.12 30.53)"></rect><path fill="#85144b" d="M162.425 132.87V77.01h14.76q4.63 0 7.35 2.07 2.71 2.06 3.88 5.87 1.18 3.81 1.18 9.08 0 5.07-.99 8.83-.98 3.77-3.5 5.83-2.53 2.06-7.16 2.06h-4.54v22.12Zm10.98-32.15h.64q3.11 0 3.81-1.74.69-1.75.69-5.15 0-3.17-.68-4.9-.68-1.73-3.22-1.73h-1.24Z"></path><rect width="27.17" height="55.86" x="-13.59" y="-27.93" fill="none" rx="0" ry="0" transform="translate(176.51 105.44)"></rect><path fill="#85144b" d="M193.115 132.87V77.01h11.17v46.34h11.49v9.52Z"></path><rect width="22.66" height="55.86" x="-11.33" y="-27.93" fill="none" rx="0" ry="0" transform="translate(204.94 105.44)"></rect><path fill="#85144b" d="m217.425 132.87 5.4-55.86h18.95l5.3 55.86h-10.57l-.8-9.01h-6.72l-.7 9.01Zm12.35-17.93h5.08l-2.45-28.41h-.5Z"></path><rect width="29.65" height="55.86" x="-14.82" y="-27.93" fill="none" rx="0" ry="0" transform="translate(232.75 105.44)"></rect><path fill="#85144b" d="M250.495 132.87V77.01h11.49l5.15 26.76V77.01h10.79v55.86h-10.92l-5.59-27.93v27.93Z"></path><rect width="27.43" height="55.86" x="-13.71" y="-27.93" fill="none" rx="0" ry="0" transform="translate(264.71 105.44)"></rect><path fill="#85144b" d="M282.875 132.87V77.01h11.49l5.14 26.76V77.01h10.79v55.86h-10.92l-5.58-27.93v27.93Z"></path><rect width="27.42" height="55.86" x="-13.71" y="-27.93" fill="none" rx="0" ry="0" transform="translate(297.08 105.44)"></rect><path fill="#85144b" d="M315.245 132.87V77.01h22.34V87.8h-10.98v10.89h10.54v10.51h-10.54v12.79h11.71v10.88Z"></path><rect width="23.07" height="55.86" x="-11.54" y="-27.93" fill="none" rx="0" ry="0" transform="translate(327.28 105.44)"></rect><path fill="#85144b" d="M342.005 132.87V77.01h17.13q4.29 0 6.48 1.96 2.19 1.95 2.94 5.45.74 3.51.74 8.24 0 4.57-1.16 7.3-1.16 2.73-4.36 3.78 2.63.54 3.7 2.62 1.06 2.07 1.06 5.38v21.13h-11.01v-21.86q0-2.45-1-3.04-1-.58-3.23-.58v25.48Zm11.36-35.16h2.7q2.31 0 2.31-5.05 0-3.27-.5-4.28-.51-1.02-1.91-1.02h-2.6Z"></path><rect width="27.29" height="55.86" x="-13.64" y="-27.93" fill="none" rx="0" ry="0" transform="translate(356.15 105.44)"></rect><path fill="#85144b" d="M386.245 133.38q-7.65 0-11.03-3.81-3.38-3.81-3.38-12.12v-5.46h11.04v6.98q0 1.94.59 3.03.59 1.1 2.05 1.1 1.52 0 2.11-.89.59-.89.59-2.92 0-2.57-.51-4.3t-1.76-3.3q-1.26-1.57-3.48-3.67l-5.01-4.76q-5.62-5.3-5.62-12.12 0-7.14 3.32-10.89 3.31-3.74 9.6-3.74 7.68 0 10.9 4.09 3.22 4.09 3.22 12.44h-11.36V89.2q0-1.14-.65-1.78-.65-.63-1.76-.63-1.34 0-1.96.74-.61.75-.61 1.92 0 1.18.63 2.54.64 1.37 2.51 3.15l6.44 6.19q1.94 1.84 3.56 3.88 1.61 2.05 2.6 4.76.98 2.72.98 6.62 0 7.87-2.9 12.33-2.91 4.46-10.11 4.46"></path><rect width="27.42" height="56.87" x="-13.71" y="-28.43" fill="none" rx="0" ry="0" transform="translate(386.05 105.45)"></rect></svg></svg>